<?xml version="1.0" encoding="utf-8"?>
<!-- Generator: Adobe Illustrator 27.5.0, SVG Export Plug-In . SVG Version: 6.00 Build 0)  -->
<!-- Image by gstudioimagen on Freepik -->
<svg version="1.1" id="Capa_1" xmlns="http://www.w3.org/2000/svg" x="0px" y="0px"
	 viewBox="0 0 2122 2122" style="enable-background:new 0 0 2122 2122;" xml:space="preserve">
<path style="fill:#FEEFE3;" d="M2053.117,697.965c-87.35-71.693-193.153-70.203-235.148-66.143
	c-32.35-57.199-76.136-109.512-130.59-151.656c-12.082-9.348-24.699-18.19-37.827-26.46c-5.958-3.799-12.026-7.488-18.229-11.023
	c-6.932-3.96-14.04-7.787-21.239-11.439c-7.153-3.628-14.442-7.103-21.687-10.334c-6.517-2.917-13.078-5.634-19.663-8.196
	c-14.449-5.775-29.06-10.687-43.784-14.935c-66.173-19.04-134.248-23.465-199.509-15.778
	c-21.533-36.282-82.832-122.53-192.281-150.657c-46.329-11.906-62.509,81.497-63.884,171.593
	c-52.294-16.256-107.472-27.193-164.681-32.064l-0.038-0.004c-0.984-0.084-1.968-0.166-2.953-0.246l-0.73-0.058
	c-2.808-0.226-5.622-0.438-8.44-0.634l-1.186-0.082c-0.801-0.055-1.602-0.109-2.404-0.161c-0.548-0.036-1.098-0.07-1.647-0.105
	c-1.021-0.064-2.043-0.127-3.065-0.188c-0.795-0.047-1.59-0.094-2.385-0.139c-0.65-0.036-1.3-0.071-1.949-0.106
	c-0.657-0.035-1.314-0.07-1.97-0.104c-0.632-0.033-1.263-0.065-1.894-0.096c-1.052-0.051-2.104-0.101-3.158-0.148
	c-0.53-0.025-1.06-0.047-1.59-0.07c-0.913-0.039-1.826-0.077-2.74-0.114c-0.537-0.022-1.076-0.042-1.614-0.062
	c-0.854-0.032-1.708-0.063-2.562-0.092c-0.465-0.016-0.931-0.033-1.397-0.048c-1.265-0.041-2.531-0.08-3.798-0.116l-1.051-0.027
	c-0.998-0.026-1.997-0.051-2.995-0.075l-1.315-0.029c-1.036-0.022-2.072-0.042-3.109-0.06l-0.947-0.017
	c-1.301-0.021-2.602-0.039-3.905-0.054l-1.105-0.012c-1.023-0.01-2.047-0.018-3.071-0.025l-1.148-0.006
	c-1.342-0.007-2.684-0.012-4.028-0.012c-215.883,0-408.781,86.064-536.28,221.101c-47.425,42.475-115.418,145.49-141.074,203.683
	c-49.196,111.584-78.674,227.15-94.018,348.128c-15.343,120.979-7.901,245.815,30.787,361.464
	c24.506,73.253,61.804,145.291,59.037,222.486c-0.848,23.656-5.508,47.193-4.263,70.833c1.245,23.64,9.666,48.558,29.098,62.077
	c31.536,21.94,78.427,2.576,98.016-30.471c19.59-33.046,18.778-74.05,14.672-112.247c-7.554-70.28-24.223-139.394-37.915-208.799
	c98.204,179.714,284.161,311.008,511.863,323.222c194.579,10.438,389.159,10.438,583.738,0.001
	c377.212-20.235,633.22-367.258,570.666-719.848l0-0.001c22.365-31.433-11.866-138.574-45.077-145.544
	c4.644-21.623,7.458-43.935,8.483-66.65C1971.084,844.553,2102.03,738.111,2053.117,697.965z"/>
<path style="fill:#F8B273;" d="M2053.117,697.965c-87.35-71.693-193.153-70.203-235.148-66.143
	c-32.35-57.199-76.136-109.512-130.59-151.656c-12.082-9.348-24.699-18.19-37.827-26.46c-5.958-3.799-12.026-7.488-18.229-11.023
	c-6.932-3.96-14.04-7.787-21.239-11.439c-7.153-3.628-14.442-7.103-21.687-10.334c-6.517-2.917-13.078-5.634-19.663-8.196
	c-14.449-5.775-29.06-10.687-43.784-14.935c-66.173-19.04-134.248-23.465-199.509-15.778
	c-21.533-36.282-82.832-122.53-192.281-150.657c-46.329-11.906-62.509,81.497-63.884,171.593l0,0.025
	c-52.293-16.267-107.469-27.214-164.68-32.089l-0.038-0.004c-0.984-0.084-1.969-0.166-2.953-0.246l-0.73-0.058
	c-2.808-0.226-5.622-0.438-8.44-0.634l-1.186-0.082c-0.801-0.054-1.602-0.108-2.404-0.161c-0.548-0.036-1.098-0.07-1.647-0.105
	c-1.021-0.064-2.042-0.127-3.065-0.188c-0.795-0.047-1.59-0.094-2.385-0.139c-0.65-0.036-1.3-0.071-1.949-0.106
	c-0.657-0.035-1.314-0.07-1.97-0.104c-0.632-0.033-1.262-0.065-1.894-0.096c-1.052-0.051-2.104-0.101-3.158-0.148
	c-0.53-0.024-1.06-0.046-1.59-0.07c-0.913-0.039-1.826-0.077-2.74-0.114c-0.537-0.022-1.075-0.042-1.614-0.062
	c-0.854-0.032-1.708-0.063-2.562-0.092c-0.465-0.016-0.931-0.033-1.397-0.048c-1.265-0.041-2.531-0.08-3.798-0.116l-1.051-0.027
	c-0.998-0.026-1.997-0.051-2.995-0.075l-1.315-0.029c-1.036-0.022-2.072-0.042-3.109-0.06l-0.947-0.017
	c-1.301-0.021-2.602-0.039-3.905-0.054l-1.105-0.012c-1.023-0.01-2.047-0.018-3.071-0.025l-1.148-0.006
	c-1.342-0.007-2.684-0.012-4.028-0.012c-215.883,0-408.781,86.064-536.28,221.101c-47.425,42.475-115.418,145.49-141.074,203.683
	c-49.196,111.584-78.674,227.15-94.018,348.128c-3.298,26.003-5.472,52.189-6.581,78.418c2.162-5.68,4.395-11.347,6.676-17.056
	c3.379-8.456,6.505-17.026,8.745-25.862c2.396-9.457,3.046-18.856,4.019-28.521c2.123-21.091,6.425-41.844,12.176-62.233
	c11.361-40.276,27.355-79.066,37.818-119.62c4.332-16.794,11.12-32.988,20.73-47.46c8.428-12.691,18.644-24.014,28.686-35.419
	c10.411-11.824,19.863-23.965,27.881-37.557c8.055-13.655,15.223-27.783,22.559-41.83c13.39-25.635,28.11-51.015,51.85-68.427
	c27.922-20.479,63.329-23.56,96.858-22.47c30.897,1.005,63.285,6.464,93.297-3.507c16.735-5.559,29.956-16.217,42.464-28.295
	c12.588-12.156,24.581-24.904,36.939-37.288c23.276-23.328,48.495-44.563,79.838-56.001c32.493-11.857,67.874-11.638,101.501-5.319
	c65.463,12.301,123.912,46.866,185.737,69.943c12.479,4.658,25.352,8.846,38.424,12.194c3.781-14.192,8.75-28.352,14.963-42.439
	c7.129,23.847,18.923,46.111,36.614,64.127c34.846,35.49,84.789,47.995,133.255,45.838c51.155-2.277,100.073-19.81,147.145-38.729
	c22.76-9.147,45.514-18.588,69.327-24.684c25.287-6.473,51.28-8.736,77.27-6.223c41.594,4.022,80.376,21.154,108.023,53.089
	c26.149,30.204,41.038,68.535,48.772,107.35c9.493,47.653,7.934,96.762,20.801,143.887c9.96,36.483,27.812,71.806,51.811,101.43
	c0.691-0.157,1.382-0.312,2.07-0.469c1.053-0.24,2.102-0.48,3.149-0.721c17.781-4.099,34.572-8.376,50.316-12.809
	c2.778-0.783,5.524-1.57,8.237-2.363c6.33-1.849,12.481-3.724,18.448-5.625c0.853-0.271,1.701-0.543,2.546-0.816
	c4.225-1.362,8.357-2.738,12.393-4.126c0.807-0.277,1.611-0.555,2.41-0.833c12.795-4.456,24.612-9.037,35.406-13.729
	c2.699-1.173,5.333-2.353,7.903-3.54c1.927-0.89,3.819-1.783,5.673-2.681c0.618-0.299,1.232-0.599,1.842-0.899
	c12.199-5.998,22.761-12.157,31.597-18.449l1.313-0.945c2.165-1.576,4.223-3.161,6.17-4.753l1.156-0.956
	c0.761-0.638,1.505-1.277,2.232-1.918c1.452-1.281,2.834-2.567,4.144-3.857c1.311-1.291,2.55-2.586,3.716-3.885
	c2.042-2.273,3.862-4.56,5.458-6.86c1.367-1.97,2.57-3.95,3.605-5.938l0.503-0.994c0.326-0.664,0.634-1.328,0.922-1.993
	c0.722-1.662,1.327-3.331,1.813-5.003c4.644-21.623,7.458-43.935,8.483-66.65C1971.084,844.553,2102.03,738.111,2053.117,697.965z"
	/>
<path style="fill:#D98684;" d="M1902.777,727.35c-8.602,1.679-16.937,4.942-24.469,9.58c13.432,10.313,25.23,22.764,34.845,36.776
	c-6.524-0.445-13.166,0.413-19.432,2.512c10.487,9.228,19.425,20.238,26.344,32.453c-13.554,0.136-27.115,3.583-39.35,9.787
	c3.103,24.026,4.348,47.967,3.692,71.51c84.619-52.401,206.167-150.191,160.707-183.858
	c-68.286-50.571-166.941-49.401-212.087-45.64c6.595,13.546,12.573,27.307,17.926,41.215
	C1870.326,704.86,1888.62,713.851,1902.777,727.35z"/>
<path style="fill:#D98684;" d="M1077.908,480.892c18.609-14.437,38.661-27.575,59.879-39.264
	c-2.222-13.538-7.452-26.515-15.349-37.531c13.943-1.634,28.106-0.926,41.747,2.084c-2.009-6.296-5.239-12.162-9.453-17.163
	c16.986-0.519,34.001,1.644,50.257,6.39c-0.707-8.817-2.998-17.471-6.725-25.403c19.254,3.449,37.316,12.897,51.323,26.654
	c14.385-3.898,29.019-7.203,43.845-9.884c-23.635-38.648-80.971-118.939-162.113-144.162
	C1077.3,225.822,1070.202,381.661,1077.908,480.892z"/>
<path style="fill:#DEAB95;" d="M1467.196,712.956c-30.881-15.664-51.584-18.431-56.76-11.055
	c-5.386,7.676,0.493,17.667,12.061,21.836c11.568,4.169,9.815,10.076,9.588,23.767c-0.227,13.691,8.847,17.232,8.847,17.232
	s8.217,5.229,19.129-3.041c10.912-8.272,14.643-13.176,24.841-6.304c10.198,6.871,21.732,5.713,24.743-3.167
	C1512.54,743.69,1498.077,728.62,1467.196,712.956z"/>
<path style="fill:#1D1510;" d="M1434.581,744.273c0.008,1.506,0.139,2.889,0.353,4.168c2.413-1.641,4.388-3.754,5.819-6.158
	c1.789-3.007,3.369-6.916,2.483-10.712c-0.82-3.514-4.126-6.534-7.587-8.491c-4.133-2.337-9.758-4.425-14.009-2.953l-0.756,0.361
	c1.295,0.729,2.676,1.397,4.182,1.951C1436.036,726.474,1434.51,731.815,1434.581,744.273z"/>
<path style="fill:#1D1510;" d="M1461.195,757.772c10.094-7.302,13.502-11.689,23.239-5.221c1.336,0.888,2.691,1.608,4.044,2.222
	l-0.156-0.823c-1.323-4.299-6.33-7.605-10.658-9.559c-3.623-1.636-8.012-2.52-11.333-1.106c-3.586,1.528-5.807,5.112-7.177,8.332
	c-1.095,2.575-1.632,5.418-1.531,8.334C1458.782,759.367,1459.975,758.655,1461.195,757.772z"/>
<path style="fill:#E6935C;" d="M1604.78,441.705c-7.172-3.638-14.433-7.099-21.698-10.339l-65.529,182.416l108.472-160.634
	C1619.077,449.179,1611.995,445.365,1604.78,441.705z"/>
<path style="fill:#E6935C;" d="M1519.654,408.245c-10.842,34.255-17.478,69.478-19.614,106.262
	c-0.816,15.022-0.294,30.278,1.011,45.376c10-49.84,33.082-95.878,62.377-136.709
	C1548.973,417.396,1534.352,412.479,1519.654,408.245z"/>
<path style="fill:#E6935C;" d="M1570.747,595.234c12.953-7.866,25.614-16.436,37.209-25.99
	c28.46-23.431,52.875-49.637,74.109-78.622c-12.056-9.336-24.684-18.184-37.819-26.456
	C1628.608,511.924,1605.098,557.744,1570.747,595.234z"/>
<path style="fill:#1D1510;" d="M1244.534,495.062c-24.38-4.025-56.089-1.9-71.238,20.027c45.057-24.74,124.354,15.614,159.57,46.483
	c27.969,23.262,52.075,49.804,74.92,78.491c-9.524-22.716-22.998-43.667-38.241-63.342
	C1338.419,537.616,1295.234,503.656,1244.534,495.062z"/>
<path style="fill:#1D1510;" d="M1627.373,707.497c-22.216,0.674-44.535,3.471-66.266,10.333c32.692-0.517,64.379,1.241,95.471,7.936
	c40.337,7.452,109.204,42.251,112.425,91.479c9.168-24.962-4.614-50.16-19.473-66.038
	C1718.46,718.325,1671.929,706.779,1627.373,707.497z"/>
<path style="fill:#957F72;" d="M1201.77,872.839c-91.676,0-169.847,57.813-200.051,138.969c27.559,1.726,55.412,1.476,82.89,0.009
	c22.097-1.18,44.446-3.092,66.249,0.197c21.806,3.287,43.513,12.651,54.659,28.997c6.282,9.212,8.79,19.931,10.324,30.512
	c2.322,16.011,2.57,32.535-1.873,48.135c3.127-0.12,6.246-0.243,9.356-0.37c3.308-0.135,6.606-0.274,9.896-0.417
	c4.934-0.215,9.849-0.438,14.743-0.67c3.263-0.155,6.517-0.313,9.761-0.476c32.447-1.625,63.983-3.639,94.516-6.014
	c3.054-0.237,6.097-0.479,9.13-0.723c6.067-0.489,12.092-0.992,18.077-1.51c7.481-0.648,14.898-1.317,22.248-2.007
	c2.941-0.276,5.871-0.556,8.79-0.839c1.25-0.121,2.498-0.244,3.745-0.366c0.614-6.595,0.932-13.278,0.932-20.035
	C1415.162,968.378,1319.623,872.839,1201.77,872.839z"/>
<path style="fill:#C8A97B;" d="M1873.839,969.069c-0.289,0.665-0.597,1.33-0.922,1.993l-0.503,0.994
	c-1.035,1.987-2.238,3.967-3.605,5.938c-1.596,2.299-3.417,4.586-5.458,6.86c-1.167,1.3-2.406,2.594-3.716,3.885
	c-1.311,1.29-2.692,2.576-4.144,3.857c-0.726,0.641-1.47,1.28-2.232,1.918l-1.156,0.956c-1.947,1.592-4.005,3.177-6.17,4.753
	l-1.313,0.945c-8.836,6.292-19.398,12.452-31.597,18.449c-0.61,0.3-1.224,0.6-1.842,0.899c-1.854,0.898-3.745,1.791-5.673,2.681
	c-2.57,1.186-5.204,2.367-7.903,3.54c-10.794,4.692-22.611,9.273-35.406,13.729c-0.799,0.278-1.603,0.557-2.41,0.833
	c-4.036,1.388-8.168,2.764-12.393,4.126c-0.845,0.273-1.694,0.545-2.546,0.816c-5.967,1.901-12.118,3.776-18.448,5.625
	c-2.713,0.793-5.458,1.58-8.237,2.363c-15.744,4.434-32.535,8.71-50.316,12.809c-1.046,0.241-2.095,0.482-3.149,0.721
	c-0.688,0.157-1.379,0.312-2.07,0.469c-4.596,1.04-9.253,2.068-13.977,3.083c-1.087,0.234-2.177,0.467-3.27,0.699
	c-5.467,1.162-11.018,2.308-16.651,3.437c-1.126,0.227-2.256,0.452-3.39,0.676c-10.199,2.022-20.664,3.991-31.385,5.904
	c-1.191,0.212-2.386,0.424-3.583,0.635c-2.395,0.422-4.804,0.842-7.224,1.259c-3.631,0.625-7.29,1.244-10.977,1.856
	c-3.688,0.612-7.403,1.218-11.146,1.818c-2.496,0.4-5.003,0.796-7.522,1.19c-2.52,0.394-5.052,0.785-7.596,1.173
	c-1.272,0.195-2.547,0.388-3.825,0.58c-5.112,0.77-10.273,1.528-15.482,2.275c-1.302,0.186-2.607,0.372-3.915,0.557
	c-11.772,1.665-23.783,3.27-36.027,4.809c-1.361,0.172-2.724,0.342-4.09,0.512c-6.83,0.847-13.732,1.675-20.703,2.483
	c-2.789,0.323-5.588,0.643-8.399,0.959c-2.81,0.317-5.633,0.63-8.465,0.94c-5.666,0.62-11.375,1.226-17.128,1.82
	c-4.521,0.465-9.069,0.923-13.642,1.373c-1.247,0.122-2.495,0.245-3.745,0.366c-2.919,0.283-5.849,0.563-8.79,0.839
	c-7.35,0.691-14.767,1.359-22.248,2.007c-5.985,0.518-12.011,1.021-18.077,1.51c-3.033,0.245-6.076,0.486-9.13,0.723
	c-30.533,2.375-62.069,4.389-94.516,6.014c-3.244,0.163-6.498,0.321-9.761,0.476c-4.894,0.232-9.809,0.455-14.743,0.67
	c-3.29,0.143-6.588,0.281-9.896,0.417c-3.11,0.127-6.23,0.25-9.356,0.37c-50.054,1.92-102.083,2.928-155.775,2.928
	c-456.364,0-826.321-70.972-826.321-158.521c-27.774,3.562-68.674,109.369-44.642,147.391c-23.66,139.128,3.034,277.3,67.232,394.78
	c98.204,179.714,284.161,311.008,511.863,323.222c194.579,10.438,389.159,10.438,583.738,0.001
	c377.212-20.235,633.22-367.258,570.666-719.848l0-0.001c22.365-31.433-11.866-138.574-45.077-145.544
	C1875.166,965.738,1874.561,967.407,1873.839,969.069z"/>
<path style="fill:#1D1510;" d="M1144.609,1068.992c1.257,0.025,2.514,0.039,3.771,0.039c14.991,0,29.905-1.934,44.38-5.764
	c1.332-0.351,2.126-1.72,1.773-3.05c-0.353-1.33-1.717-2.144-3.05-1.774c-15.237,4.03-30.952,5.954-46.767,5.559
	c-1.252-0.083-2.516,1.067-2.548,2.441C1142.139,1067.823,1143.23,1068.963,1144.609,1068.992z"/>
<path style="fill:#1D1510;" d="M1154.256,1110.186c1.269,0.029,2.538,0.039,3.808,0.039c14.965,0,29.866-1.934,44.345-5.764
	c1.333-0.351,2.127-1.72,1.774-3.05c-0.353-1.33-1.72-2.134-3.05-1.774c-15.26,4.039-30.994,5.91-46.77,5.559
	c-1.299-0.131-2.519,1.062-2.548,2.441C1151.786,1109.012,1152.877,1110.157,1154.256,1110.186z"/>
<path style="fill:#1D1510;" d="M1351.264,783.804c-2.573-9.763,2.894-18.149,2.948-18.231c0.762-1.149,0.453-2.694-0.689-3.459
	c-1.14-0.77-2.682-0.463-3.454,0.677c-0.277,0.414-6.763,10.246-3.646,22.212c2.382,9.154,9.644,16.872,21.583,22.928
	c10.97,5.564,20.171,7.727,27.849,7.727c10.768-0.003,18.536-4.258,23.974-9.343c-0.492,4.107-0.335,8.582,0.953,13.236
	c3.235,11.693,12.784,21.637,28.383,29.549c7.583,3.844,14.592,5.773,20.952,5.773c3.649,0,7.086-0.638,10.295-1.91
	c11.493-4.556,15.598-15.596,15.766-16.063c0.468-1.296-0.202-2.724-1.498-3.196c-1.289-0.453-2.726,0.204-3.194,1.501
	c-0.034,0.092-3.486,9.388-12.914,13.125c-7.41,2.933-16.543,1.696-27.152-3.683c-14.292-7.25-22.984-16.141-25.83-26.426
	c-2.624-9.477,0.261-18.236,3.143-23.917l7.964-15.702c0.621-1.228,0.129-2.729-1.101-3.352c-1.225-0.614-2.729-0.122-3.352,1.101
	l-7.958,15.693c-5.856,11.537-20.648,28.365-54.024,11.435C1359.681,798.114,1353.288,791.492,1351.264,783.804z"/>
<path style="fill:#1D1510;" d="M1018.529,941.305c0.494,0.624,1.223,0.95,1.961,0.95c0.541,0,1.086-0.176,1.544-0.536
	c1.082-0.858,1.265-2.422,0.412-3.503c-37.712-47.741-61.535-104.896-68.891-165.29c-0.166-1.37-1.376-2.348-2.777-2.173
	c-1.366,0.166-2.341,1.408-2.173,2.777C956.071,834.83,980.251,892.847,1018.529,941.305z"/>
<path style="fill:#1D1510;" d="M1039.467,921.387c0.516,0,1.038-0.161,1.486-0.492c1.106-0.823,1.335-2.382,0.515-3.488
	c-13.567-18.265-22.059-40.809-23.917-63.478c-0.114-1.369-1.284-2.392-2.692-2.28c-1.372,0.112-2.395,1.315-2.283,2.689
	c1.934,23.586,10.772,47.04,24.887,66.041C1037.952,921.041,1038.704,921.387,1039.467,921.387z"/>
<path style="fill:#1D1510;" d="M901.017,1000.87c26.955,9.593,56.1,12.365,81.303,14.212l0.185,0.005
	c1.296,0,2.39-0.999,2.484-2.314c0.103-1.374-0.93-2.568-2.304-2.67c-24.879-1.818-53.627-4.546-79.995-13.929
	c-27.966-9.959-50.263-26.894-62.787-47.678c-0.709-1.189-2.251-1.559-3.422-0.853c-1.182,0.711-1.562,2.246-0.851,3.425
	C848.747,972.841,871.966,990.527,901.017,1000.87z"/>
<path style="fill:#1D1510;" d="M883.794,984.042c0.472,0.424,1.064,0.628,1.654,0.628c0.687,0,1.374-0.282,1.866-0.838
	c0.914-1.033,0.821-2.607-0.212-3.523c-6.017-5.34-10.943-11.664-14.643-18.806c-0.634-1.223-2.136-1.71-3.362-1.072
	c-1.223,0.634-1.701,2.139-1.067,3.362C872.01,971.487,877.314,978.298,883.794,984.042z"/>
<path style="fill:#1D1510;" d="M1215.457,1037.533c-0.205,1.365,0.733,2.636,2.095,2.841l0.375,0.029
	c1.213,0,2.277-0.886,2.463-2.119c7.717-51.069,5.837-102.06-5.588-151.556c-0.312-1.344-1.647-2.183-2.991-1.871
	c-1.342,0.312-2.18,1.652-1.871,2.991C1221.225,936.729,1223.082,987.092,1215.457,1037.533z"/>
<path style="fill:#1D1510;" d="M1245.394,1109.138l0.701,0.102c1.079,0,2.075-0.707,2.395-1.793
	c20.665-70.538,24.192-143.054,10.202-209.714c-0.283-1.35-1.615-2.232-2.953-1.93c-1.349,0.283-2.212,1.603-1.929,2.953
	c13.822,65.861,10.326,137.539-10.11,207.288C1243.313,1107.365,1244.071,1108.753,1245.394,1109.138z"/>
<path style="fill:#1D1510;" d="M1292.377,1105.552l0.641,0.083c1.103,0,2.112-0.735,2.409-1.856
	c15.832-59.703,18.947-123.732,9.008-185.164c-0.224-1.355-1.476-2.309-2.862-2.061c-1.359,0.219-2.282,1.501-2.063,2.86
	c9.829,60.745,6.748,124.053-8.906,183.088C1290.251,1103.833,1291.045,1105.197,1292.377,1105.552z"/>
<path style="fill:#1D1510;" d="M1339.096,1100.49l0.519,0.053c1.155,0,2.19-0.804,2.439-1.978
	c9.523-45.018,12.731-93.374,9.53-143.731c-0.09-1.379-1.289-2.514-2.648-2.334c-1.374,0.088-2.419,1.272-2.331,2.646
	c3.172,49.91-0.003,97.812-9.432,142.387C1336.886,1098.882,1337.749,1100.203,1339.096,1100.49z"/>
<path style="fill:#1D1510;" d="M1393.717,1030.283c-1.369-0.088-2.56,0.955-2.653,2.329c-1.294,19.737-3.854,39.508-7.615,58.758
	c-0.263,1.349,0.619,2.66,1.971,2.928l0.48,0.044c1.169,0,2.215-0.824,2.446-2.017c3.8-19.455,6.39-39.44,7.698-59.391
	C1396.134,1031.56,1395.091,1030.376,1393.717,1030.283z"/>
<path style="fill:#1D1510;" d="M1039.241,975.77c56.202,5.062,111.717,20.74,160.538,45.339l1.121,0.268
	c0.913,0,1.79-0.502,2.229-1.374c0.621-1.228,0.127-2.729-1.104-3.347c-49.379-24.882-105.512-40.74-162.336-45.856
	c-1.357-0.088-2.585,0.887-2.709,2.26C1036.855,974.435,1037.869,975.647,1039.241,975.77z"/>
<path style="fill:#1D1510;" d="M1074.758,930.961c-1.381-0.156-2.626,0.755-2.826,2.114c-0.195,1.365,0.75,2.631,2.114,2.826
	c45.474,6.539,88.901,19.508,129.077,38.553l1.067,0.238c0.936,0,1.829-0.526,2.256-1.427c0.592-1.242,0.061-2.733-1.184-3.323
	C1164.631,950.688,1120.724,937.572,1074.758,930.961z"/>
<path style="fill:#1D1510;" d="M1131.437,902.308c24.431,6.13,48.173,14.163,70.563,23.878l0.991,0.205
	c0.965,0,1.883-0.56,2.29-1.501c0.548-1.267-0.031-2.733-1.294-3.284c-22.64-9.822-46.643-17.944-71.337-24.141
	c-1.33-0.316-2.692,0.477-3.025,1.813C1129.289,900.617,1130.1,901.972,1131.437,902.308z"/>
<path style="fill:#1D1510;" d="M1791.611,1825.307c-10.244-3.81-21.568-2.816-31.374-1.603
	c-44.346,5.496-88.005,18.051-130.226,30.188c-61.469,17.666-125.037,35.898-191.02,32.312
	c-24.511-1.345-56.509-8.049-69.727-32.326c-5.601-10.285-7.516-23.469-5.695-39.177c3.386-29.208,17.303-55.668,30.762-81.262
	c3.8-7.225,7.732-14.699,11.357-22.109c14.838-30.329,28.538-64.487,41.887-104.433c25.618-76.643,40.797-156.346,45.113-236.896
	c0.351-6.578,0.809-13.793,1.296-21.515c5.135-81.228,13.732-217.179-56.551-258.265c-14.507-8.487-33.702-5.296-47.756,7.922
	c-1.001,0.945-1.05,2.524-0.107,3.527c0.947,1.009,2.523,1.052,3.527,0.107c12.431-11.693,29.233-14.597,41.818-7.25
	c67.627,39.532,59.154,173.563,54.09,253.641c-0.49,7.742-0.948,14.972-1.301,21.569c-4.29,80.097-19.383,159.357-44.86,235.58
	c-13.279,39.732-26.899,73.69-41.639,103.82c-3.593,7.342-7.505,14.781-11.291,21.978c-13.671,25.998-27.807,52.877-31.301,83.011
	c-1.942,16.75,0.168,30.928,6.27,42.139c14.317,26.295,48.054,33.505,73.835,34.918c66.828,3.703,130.803-14.709,192.672-32.497
	c42.037-12.082,85.505-24.579,129.461-30.031c9.225-1.15,19.832-2.09,29.021,1.33c9.679,3.601,14.97,9.13,15.725,16.429
	c1.552,14.977-15.608,34.3-28.59,42.484c-1.167,0.736-1.515,2.276-0.78,3.44c0.475,0.75,1.284,1.164,2.112,1.164
	c0.456,0,0.916-0.122,1.328-0.385c13.547-8.541,32.731-29.457,30.892-47.22C1809.894,1839.475,1806.067,1830.686,1791.611,1825.307z
	"/>
<path style="fill:#1D1510;" d="M566.754,1088.559l0.889,0.166c1.004,0,1.951-0.609,2.331-1.603
	c13.043-34.153,18.704-71.488,16.372-107.976c-0.09-1.374-1.286-2.48-2.648-2.329c-1.377,0.088-2.419,1.272-2.331,2.651
	c2.288,35.771-3.264,72.385-16.056,105.871C564.823,1086.624,565.466,1088.066,566.754,1088.559z"/>
<path style="fill:#1D1510;" d="M233.754,962.415h0.061c1.376-0.034,2.466-1.179,2.434-2.553c-0.434-17.925,0.149-36.078,1.73-53.958
	c0.122-1.374-0.894-2.582-2.266-2.704c-1.396-0.117-2.582,0.896-2.704,2.265c-1.596,18.066-2.185,36.409-1.749,54.514
	C231.293,961.338,232.402,962.415,233.754,962.415z"/>
<path style="fill:#1D1510;" d="M243.016,975.706l0.395,0.029c1.206,0,2.265-0.877,2.46-2.105
	c2.875-18.07,11.807-34.913,25.16-47.425c1.006-0.945,1.057-2.524,0.114-3.527c-0.938-1.009-2.521-1.048-3.525-0.117
	c-14.156,13.272-23.63,31.128-26.675,50.29C240.729,974.211,241.656,975.487,243.016,975.706z"/>
<path style="fill:#1D1510;" d="M975.007,597.14c0.441,0.321,0.952,0.472,1.457,0.472c0.774,0,1.537-0.361,2.026-1.038
	c22.928-31.795,48.916-67.834,84.94-89.437c1.181-0.706,1.564-2.241,0.855-3.42c-0.709-1.179-2.237-1.579-3.422-0.858
	c-36.901,22.129-63.211,58.612-86.421,90.801C973.638,594.776,973.888,596.335,975.007,597.14z"/>
<path style="fill:#1D1510;" d="M1063.594,536.029c-10.227,15.547-17.393,32.653-21.303,50.84c-0.29,1.35,0.568,2.675,1.915,2.967
	l0.526,0.054c1.15,0,2.185-0.799,2.436-1.969c3.781-17.583,10.709-34.124,20.597-49.154c0.755-1.15,0.436-2.695-0.714-3.454
	C1065.895,534.562,1064.351,534.874,1063.594,536.029z"/>
<path style="fill:#1D1510;" d="M1068.093,627.921c0.268,1.154,1.293,1.934,2.429,1.934l0.565-0.063
	c1.342-0.312,2.177-1.652,1.868-2.991c-4.953-21.393-3.964-43.732,2.855-64.609c0.429-1.311-0.285-2.719-1.595-3.148
	c-1.318-0.429-2.718,0.288-3.145,1.599C1063.966,582.382,1062.938,605.646,1068.093,627.921z"/>
<path style="fill:#1D1510;" d="M1327.766,399.318c8.312,3.513,15.851,8.438,22.407,14.641c0.483,0.458,1.099,0.682,1.715,0.682
	c0.66,0,1.323-0.263,1.812-0.779c0.948-1.004,0.901-2.582-0.097-3.528c-6.991-6.611-15.03-11.863-23.893-15.615
	c-1.269-0.526-2.733,0.059-3.269,1.33C1325.905,397.315,1326.497,398.777,1327.766,399.318z"/>
<path style="fill:#1D1510;" d="M1332.426,392.039c8.472,0.95,16.921,3.615,24.424,7.703l1.191,0.302
	c0.884,0,1.739-0.473,2.192-1.301c0.66-1.208,0.212-2.723-0.996-3.386c-8.066-4.39-17.145-7.255-26.256-8.278
	c-1.374-0.137-2.602,0.833-2.757,2.202C1330.07,390.65,1331.057,391.883,1332.426,392.039z"/>
<path style="fill:#1D1510;" d="M1237.418,422.109c0.402,0.955,1.325,1.525,2.297,1.525l0.972-0.195
	c1.269-0.541,1.861-2.003,1.325-3.269c-3.025-7.157-7.288-13.623-12.667-19.216c-0.953-0.984-2.531-1.028-3.528-0.068
	c-0.991,0.955-1.023,2.533-0.068,3.527C1230.704,409.569,1234.631,415.522,1237.418,422.109z"/>
<path style="fill:#1D1510;" d="M1168.475,460.472c0.312,1.097,1.311,1.808,2.397,1.808l0.687-0.097
	c1.326-0.38,2.09-1.759,1.71-3.084c-2.246-7.834-5.286-15.474-9.04-22.704c-0.638-1.228-2.139-1.71-3.364-1.062
	c-1.223,0.633-1.698,2.139-1.065,3.362C1163.401,445.627,1166.319,452.955,1168.475,460.472z"/>
<path style="fill:#1D1510;" d="M1788.415,628.175l18.027,12.696c0.438,0.307,0.938,0.453,1.435,0.453
	c0.784,0,1.557-0.37,2.042-1.057c0.794-1.126,0.524-2.685-0.602-3.479l-18.027-12.697c-1.133-0.789-2.685-0.516-3.476,0.604
	C1787.019,625.821,1787.29,627.38,1788.415,628.175z"/>
<path style="fill:#1D1510;" d="M1778.257,645.631c8.275-0.312,16.59,2.022,23.461,6.587c0.427,0.283,0.904,0.419,1.379,0.419
	c0.806,0,1.6-0.39,2.081-1.115c0.762-1.145,0.45-2.695-0.697-3.454c-7.737-5.145-17.091-7.732-26.414-7.425
	c-1.377,0.053-2.451,1.213-2.397,2.592C1775.724,644.608,1776.993,645.709,1778.257,645.631z"/>
<path style="fill:#1D1510;" d="M1845.945,726.756c4.904,0.76,9.639,2.281,14.073,4.522l1.123,0.268c0.911,0,1.79-0.502,2.229-1.369
	c0.622-1.233,0.127-2.733-1.101-3.352c-4.901-2.475-10.136-4.156-15.559-4.999c-1.357-0.2-2.636,0.726-2.848,2.08
	C1843.65,725.271,1844.583,726.547,1845.945,726.756z"/>
<path style="fill:#1D1510;" d="M1859.273,798.781c0.263,1.349,1.563,2.202,2.925,1.973c5.686-1.12,11.618-0.711,17.135,1.145
	l0.796,0.131c1.04,0,2.012-0.657,2.363-1.695c0.441-1.306-0.261-2.724-1.566-3.162c-6.332-2.134-13.133-2.582-19.683-1.32
	C1859.891,796.116,1859.009,797.427,1859.273,798.781z"/>
<path style="fill:#1D1510;" d="M1531.536,1230.049l0.334-0.025c184.353-24.765,327.059-67.863,381.739-115.288
	c1.04-0.901,1.152-2.48,0.251-3.518c-0.906-1.048-2.48-1.155-3.52-0.253c-53.973,46.811-195.705,89.476-379.132,114.119
	c-1.366,0.18-2.324,1.437-2.141,2.801C1529.234,1229.138,1530.306,1230.049,1531.536,1230.049z"/>
<path style="fill:#1D1510;" d="M202.307,1119.487c85.578,68.292,430.057,138.933,858.397,138.933
	c129.167,0,252.209-5.501,365.702-16.346c1.372-0.132,2.377-1.349,2.246-2.723c-0.129-1.369-1.321-2.353-2.719-2.246
	c-113.34,10.836-236.219,16.327-365.23,16.327c-427.246,0-770.378-70.085-855.284-137.842c-1.077-0.852-2.646-0.682-3.505,0.395
	C201.055,1117.06,201.23,1118.629,202.307,1119.487z"/>
<path style="fill:#1D1510;" d="M1910.339,1274.57c-53.973,46.811-195.707,89.471-379.132,114.119
	c-1.366,0.18-2.324,1.437-2.141,2.801c0.168,1.252,1.24,2.163,2.47,2.163l0.334-0.025c184.353-24.77,327.059-67.868,381.739-115.288
	c1.04-0.901,1.152-2.48,0.251-3.518C1912.953,1273.776,1911.38,1273.669,1910.339,1274.57z"/>
<path style="fill:#1D1510;" d="M202.307,1284.017c85.006,67.834,429.329,138.002,858.397,138.002
	c129.167,0,252.209-5.5,365.702-16.346c1.372-0.132,2.377-1.349,2.246-2.724c-0.129-1.369-1.321-2.319-2.719-2.246
	c-113.34,10.836-236.219,16.326-365.23,16.326c-427.977,0-770.951-69.612-855.284-136.91c-1.077-0.853-2.646-0.682-3.505,0.395
	C201.055,1281.591,201.23,1283.16,202.307,1284.017z"/>
<path style="fill:#1D1510;" d="M1878.895,1418.77c-51.978,45.081-188.499,86.172-365.191,109.919
	c-1.366,0.18-2.324,1.437-2.141,2.801c0.168,1.252,1.24,2.163,2.47,2.163l0.334-0.024c177.62-23.868,315.113-65.398,367.797-111.089
	c1.04-0.901,1.152-2.479,0.251-3.517C1881.509,1417.975,1879.935,1417.868,1878.895,1418.77z"/>
<path style="fill:#1D1510;" d="M1412.764,1545.235c1.371-0.132,2.378-1.35,2.246-2.724c-0.129-1.369-1.342-2.368-2.719-2.246
	c-109.167,10.431-227.542,15.722-351.836,15.722c-421.168,0-714.888-69.106-819.143-137.598c-1.145-0.75-2.697-0.434-3.454,0.716
	c-0.755,1.15-0.436,2.699,0.716,3.454c104.874,68.896,399.68,138.417,821.881,138.417
	C1184.909,1560.976,1303.442,1555.681,1412.764,1545.235z"/>
<path style="fill:#1D1510;" d="M1801.392,1563.783c-0.906-1.048-2.48-1.15-3.52-0.254c-46.852,40.633-169.943,77.671-329.266,99.084
	c-1.366,0.18-2.324,1.437-2.141,2.801c0.168,1.252,1.24,2.163,2.47,2.163l0.334-0.025c160.25-21.53,284.314-59.011,331.873-100.253
	C1802.181,1566.399,1802.294,1564.821,1801.392,1563.783z"/>
<path style="fill:#1D1510;" d="M1377.617,1678.024c1.371-0.131,2.377-1.35,2.246-2.724c-0.129-1.369-1.325-2.309-2.719-2.246
	c-98.458,9.413-205.223,14.183-317.324,14.183c-455.334,0-669.506-86.855-740.454-124.195c-1.216-0.638-2.728-0.175-3.369,1.048
	c-0.643,1.218-0.173,2.724,1.045,3.367c71.274,37.515,286.331,124.77,742.778,124.77
	C1172.08,1692.226,1279.004,1687.446,1377.617,1678.024z"/>
<path style="fill:#1D1510;" d="M1676.201,1693.873c-31.766,14.65-139.617,54.938-255.658,65.276
	c-1.371,0.122-2.385,1.335-2.263,2.704c0.114,1.301,1.203,2.275,2.482,2.275l0.225-0.009
	c116.747-10.402,225.319-50.962,257.305-65.715c1.25-0.575,1.797-2.061,1.22-3.308
	C1678.934,1693.843,1677.461,1693.288,1676.201,1693.873z"/>
<path style="fill:#1D1510;" d="M1339.598,1768.391c-87.069,8.317-181.427,12.536-280.458,12.536
	c-289.266,0-506.469-35.264-645.572-104.818c-1.23-0.624-2.731-0.117-3.347,1.116c-0.616,1.232-0.117,2.728,1.116,3.347
	c139.802,69.9,357.756,105.344,647.804,105.344c99.189,0,193.707-4.224,280.93-12.555c1.371-0.132,2.378-1.35,2.246-2.724
	C1342.187,1769.263,1341.003,1768.303,1339.598,1768.391z"/>
<path style="fill:#1D1510;" d="M436.409,1190.298c0.424,0.277,0.901,0.414,1.376,0.414c0.809,0,1.6-0.39,2.08-1.116
	c0.762-1.145,0.451-2.694-0.699-3.459c-44.31-29.423-77.325-75.844-90.577-127.361c-0.341-1.335-1.71-2.12-3.038-1.793
	c-1.335,0.346-2.139,1.705-1.796,3.04C357.313,1112.714,391.084,1160.198,436.409,1190.298z"/>
<path style="fill:#1D1510;" d="M853.519,1233.669c0.426,0.287,0.911,0.424,1.388,0.424c0.804,0,1.591-0.385,2.073-1.101
	c0.768-1.145,0.465-2.695-0.68-3.464c-40.484-27.22-73.661-64.545-95.941-107.941c-0.631-1.228-2.134-1.725-3.359-1.077
	c-1.225,0.629-1.708,2.129-1.079,3.357C778.586,1168.008,812.335,1205.976,853.519,1233.669z"/>
<path style="fill:#1D1510;" d="M1303.323,1235.929l0.728,0.107c1.069,0,2.056-0.692,2.385-1.764c0.405-1.32-0.339-2.714-1.656-3.118
	c-54.704-16.726-103.196-51.532-136.543-98.002c-0.804-1.125-2.36-1.379-3.481-0.575c-1.118,0.804-1.376,2.363-0.573,3.479
	C1198.163,1183.418,1247.576,1218.882,1303.323,1235.929z"/>
<path style="fill:#1D1510;" d="M1700.425,1141.036c26.748,16.268,52.73,24.677,77.228,24.994h0.031c1.365,0,2.478-1.096,2.495-2.461
	c0.017-1.378-1.084-2.509-2.463-2.528c-23.593-0.307-48.726-8.472-74.699-24.263c-24.748-15.05-46.102-31.6-65.286-50.602
	c-0.982-0.974-2.558-0.955-3.53,0.02c-0.97,0.979-0.96,2.558,0.017,3.528C1653.684,1108.997,1675.341,1125.786,1700.425,1141.036z"
	/>
<path style="fill:#1D1510;" d="M1837.38,960.154c5.866,4.248,10.821,9.837,14.327,16.171c0.455,0.823,1.308,1.286,2.185,1.286
	l1.206-0.312c1.206-0.668,1.642-2.188,0.975-3.391c-3.859-6.967-9.311-13.121-15.769-17.798c-1.118-0.799-2.677-0.56-3.481,0.56
	C1836.013,957.787,1836.262,959.346,1837.38,960.154z"/>
<path style="fill:#1D1510;" d="M1851.048,940.252c-1.196,0.682-1.61,2.207-0.923,3.406c5.006,8.731,8.19,18.646,9.208,28.663
	c0.131,1.281,1.215,2.241,2.48,2.241l0.256-0.015c1.369-0.136,2.368-1.359,2.229-2.733c-1.089-10.709-4.492-21.301-9.847-30.641
	C1853.767,939.979,1852.235,939.565,1851.048,940.252z"/>
<path style="fill:#1D1510;" d="M1583.195,1075.735c0.429,0.891,1.321,1.413,2.249,1.413l1.079-0.249
	c1.243-0.595,1.764-2.09,1.167-3.328c-4.059-8.424-8.855-16.561-14.251-24.185c-0.799-1.125-2.348-1.383-3.479-0.594
	c-1.123,0.799-1.391,2.353-0.594,3.478C1574.604,1059.667,1579.256,1067.565,1583.195,1075.735z"/>
<path style="fill:#1D1510;" d="M1594.318,1074.541c0.246,1.179,1.284,1.983,2.439,1.983l0.514-0.054
	c1.349-0.282,2.212-1.608,1.929-2.953c-1.666-7.942-4.758-15.415-9.186-22.212c-0.75-1.155-2.294-1.481-3.452-0.731
	c-1.154,0.75-1.481,2.295-0.728,3.449C1589.924,1060.31,1592.778,1067.209,1594.318,1074.541z"/>
<path style="fill:#1D1510;" d="M641.246,1094.775c0.487,0.492,1.125,0.735,1.766,0.735c0.639,0,1.274-0.243,1.762-0.726
	c0.974-0.974,0.977-2.553,0.005-3.527c-10.083-10.114-16.541-23.493-18.185-37.676c-0.156-1.369-1.378-2.333-2.765-2.192
	c-1.369,0.161-2.348,1.399-2.19,2.768C623.412,1069.445,630.374,1083.871,641.246,1094.775z"/>
<path style="fill:#1D1510;" d="M802.476,464.809l0.229,0.01c1.277,0,2.363-0.974,2.482-2.266
	c1.503-16.453,6.005-32.292,13.379-47.079c0.414-0.828,0.334-1.818-0.207-2.568c-0.541-0.75-1.447-1.116-2.368-1.013
	c-3.22,0.449-6.38,1.218-9.44,2.29c2.441-9.125,6.29-17.759,11.471-25.715c0.753-1.15,0.426-2.699-0.728-3.449
	c-1.16-0.755-2.702-0.429-3.452,0.731c-6.395,9.812-10.865,20.604-13.289,32.068c-0.195,0.926,0.151,1.886,0.891,2.47
	c0.745,0.59,1.752,0.712,2.611,0.302c2.543-1.194,5.187-2.144,7.896-2.831c-6.382,14.042-10.324,28.93-11.735,44.336
	C800.094,463.469,801.104,464.682,802.476,464.809z"/>
<path style="fill:#1D1510;" d="M901.74,599.931l0.472,0.043c1.172,0,2.217-0.828,2.449-2.022
	c2.779-14.475,6.726-28.833,11.732-42.685c0.309-0.853,0.129-1.807-0.467-2.49c-0.595-0.677-1.518-0.979-2.402-0.799
	c-2.141,0.463-4.346,0.541-6.514,0.273c5.077-12.005,12.952-22.738,22.904-31.182c1.052-0.891,1.181-2.465,0.29-3.513
	c-0.891-1.057-2.468-1.179-3.515-0.287c-11.342,9.617-20.139,22.046-25.44,35.932c-0.248,0.658-0.212,1.389,0.102,2.013
	c0.317,0.628,0.882,1.091,1.557,1.281c2.422,0.677,4.928,0.96,7.447,0.887c-4.458,12.911-8.019,26.222-10.595,39.625
	C899.501,598.362,900.385,599.668,901.74,599.931z"/>
<path style="fill:#1D1510;" d="M801.015,739.151c0.835,0.224,1.727,0.01,2.36-0.58l2.804-2.597l0.344,32.219
	c0.014,1.369,1.128,2.47,2.495,2.47h0.026c1.376-0.014,2.483-1.145,2.468-2.519l-0.405-37.856c-0.01-0.984-0.602-1.871-1.508-2.261
	c-0.901-0.38-1.954-0.209-2.682,0.458l-3.771,3.498c-1.228-7.367-0.151-15.128,3.109-21.837c0.602-1.242,0.085-2.733-1.155-3.337
	c-1.237-0.604-2.729-0.083-3.333,1.154c-4.402,9.063-5.305,19.805-2.482,29.477C799.526,738.274,800.181,738.917,801.015,739.151z"
	/>
<path style="fill:#1D1510;" d="M597.756,767.346c1.135,0.156,2.141-0.629,2.502-1.686l0.619-1.277
	c0.948,13.282,2.551,26.636,4.772,39.757c0.207,1.213,1.262,2.075,2.458,2.075l0.419-0.034c1.359-0.229,2.273-1.52,2.044-2.88
	c-2.456-14.49-4.146-29.267-5.023-43.922c-0.047-0.789-0.468-1.51-1.131-1.939c-0.662-0.434-1.488-0.521-2.236-0.243
	c-1.026,0.385-1.986,0.921-2.848,1.583c-1.169-8.141-1.077-16.546,0.295-24.614c0.229-1.359-0.685-2.646-2.044-2.879
	c-1.343-0.234-2.646,0.687-2.877,2.041c-1.788,10.543-1.527,21.627,0.755,32.058C595.699,766.484,596.637,767.283,597.756,767.346z"
	/>
<path style="fill:#1D1510;" d="M406.745,817.305c0.565,0.073,1.138-0.039,1.62-0.327c1.993,13.885,6.251,27.571,12.497,40.044
	c0.439,0.872,1.318,1.379,2.234,1.379l1.113-0.263c1.233-0.619,1.732-2.114,1.116-3.347c-7.339-14.66-11.827-31.06-12.974-47.42
	c-0.093-1.34-1.177-2.281-2.57-2.319c-1.342,0.044-2.407,1.145-2.412,2.485l-0.073,1.067c-2.132-6.738-2.431-13.997-0.802-20.921
	c0.314-1.34-0.517-2.685-1.858-2.996c-1.326-0.336-2.685,0.511-2.999,1.856c-2.314,9.837-1.176,20.268,3.203,29.374
	C405.203,816.666,405.919,817.193,406.745,817.305z"/>
<path style="fill:#1D1510;" d="M447.897,571.327c1.038,0.297,2.156-0.127,2.75-1.033c1.16-1.769,2.565-3.342,4.173-4.682
	c-2.285,15.518-1.411,31.552,2.582,46.714c0.295,1.121,1.304,1.861,2.409,1.861l0.639-0.083c1.332-0.351,2.126-1.715,1.776-3.045
	c-4.283-16.273-4.816-33.593-1.544-50.09c0.185-0.926-0.171-1.876-0.916-2.456c-0.743-0.58-1.754-0.692-2.604-0.282
	c-2.205,1.052-4.239,2.397-6.056,3.995c0.529-9.612,3.043-19.074,7.389-27.688c0.621-1.232,0.127-2.733-1.104-3.352
	c-1.23-0.609-2.728-0.122-3.35,1.101c-5.72,11.342-8.477,24.044-7.971,36.735C446.114,570.109,446.852,571.039,447.897,571.327z"/>
<path style="fill:#1D1510;" d="M144.692,1134.478c0.124-0.994-0.355-1.964-1.22-2.466c-0.86-0.511-1.944-0.448-2.748,0.156
	l-6.329,4.731c-0.646-8.575-0.024-17.159,1.859-25.588c0.302-1.344-0.545-2.68-1.89-2.981c-1.34-0.278-2.675,0.55-2.977,1.89
	c-2.327,10.412-2.833,21.052-1.506,31.63c0.11,0.882,0.682,1.637,1.498,1.983c0.814,0.351,1.756,0.234,2.47-0.297l5.352-4
	c-1.065,16.414,2.156,33.281,9.245,48.078c0.426,0.896,1.32,1.418,2.251,1.418l1.074-0.244c1.242-0.594,1.769-2.085,1.172-3.328
	C145.442,1169.801,142.512,1151.696,144.692,1134.478z"/>
<path style="fill:#1D1510;" d="M167.569,1275.491c-1.344-0.219-2.648,0.682-2.882,2.036c-3.661,21.179-6.088,42.811-7.213,64.297
	c-0.071,1.379,0.986,2.553,2.36,2.621l0.134,0.005c1.318,0,2.419-1.033,2.49-2.363c1.113-21.291,3.518-42.724,7.145-63.712
	C169.837,1277.021,168.928,1275.73,167.569,1275.491z"/>
<path style="fill:#1D1510;" d="M176.012,1313.581c0.061-1.374-1.009-2.538-2.385-2.602c-1.331,0.024-2.538,1.013-2.599,2.387
	c-0.607,13.973,0.078,28.093,2.034,41.954c0.175,1.242,1.245,2.144,2.467,2.144l0.351-0.025c1.364-0.195,2.314-1.457,2.122-2.821
	C176.088,1341.06,175.418,1327.252,176.012,1313.581z"/>
<path style="fill:#1D1510;" d="M131.676,1439.218c-0.171-0.964-0.894-1.744-1.844-1.983c-0.947-0.244-1.954,0.097-2.567,0.867
	l-1.52,1.915c-4.436-15.104-7.82-30.616-10.068-46.183c-0.195-1.359-1.454-2.294-2.823-2.114c-1.364,0.2-2.309,1.462-2.112,2.826
	c2.509,17.389,6.416,34.719,11.61,51.498c0.273,0.886,1.013,1.544,1.922,1.715c0.906,0.176,1.839-0.171,2.414-0.901l1.069-1.35
	c3.713,19.444,8.974,38.699,15.667,57.31c0.368,1.018,1.325,1.651,2.348,1.651l0.843-0.146c1.299-0.468,1.971-1.895,1.506-3.191
	C140.902,1481.055,135.369,1460.222,131.676,1439.218z"/>
<path style="fill:#1D1510;" d="M206.541,1601.566l2.239-2.685c1.001,11.104,2.931,22.158,5.752,32.946
	c0.295,1.12,1.306,1.861,2.412,1.861l0.633-0.083c1.333-0.346,2.132-1.71,1.784-3.045c-3.262-12.468-5.301-25.306-6.064-38.154
	c-0.061-1.023-0.738-1.905-1.71-2.222c-0.964-0.336-2.037-0.02-2.694,0.77l-3.444,4.131c-4.594-12.794-7.058-26.158-7.328-39.791
	c-0.026-1.359-1.138-2.446-2.495-2.446h-0.048c-1.379,0.029-2.473,1.164-2.446,2.543c0.309,15.645,3.399,30.952,9.177,45.496
	c0.326,0.818,1.057,1.403,1.924,1.545C205.096,1602.555,205.978,1602.243,206.541,1601.566z"/>
<path style="fill:#1D1510;" d="M223.347,1750.238c-0.256-1.276-0.646-3.201-2.058-4.662c-1.155-1.179-2.711-1.788-4.312-1.759
	c-1.852,0.034-3.61,0.853-5.047,1.813c-2.768-11.444-4.107-23.187-3.985-34.962c0.014-1.374-1.092-2.505-2.468-2.519h-0.026
	c-1.367,0-2.48,1.101-2.495,2.47c-0.142,13.559,1.59,27.074,5.15,40.171c0.238,0.882,0.938,1.559,1.824,1.774
	c0.88,0.2,1.815-0.078,2.431-0.75c1.559-1.72,3.54-2.987,4.709-3.006l0.643,0.253c0.387,0.4,0.594,1.418,0.743,2.163l4.103,20.404
	c0.238,1.184,1.279,2.003,2.443,2.003l0.494-0.049c1.35-0.272,2.224-1.588,1.954-2.938L223.347,1750.238z"/>
</svg>
